<svg width="253" height="253" viewBox="0 0 253 253" fill="none" xmlns="http://www.w3.org/2000/svg">
<g clip-path="url(#clip0_339_222)">
<rect width="253" height="253" rx="8" fill="#0E0E10"/>
<rect x="23.25" y="23.25" width="206.5" height="206.5" rx="25.75" fill="#121214" stroke="#272728" stroke-width="0.5"/>
<path fill-rule="evenodd" clip-rule="evenodd" d="M58.5876 60.5876C75.3802 43.795 102.606 43.795 119.399 60.5876L149.804 90.9932C166.597 107.786 166.597 135.011 149.804 151.804C145.606 156.003 138.799 156.003 134.601 151.804C130.404 147.606 130.404 140.799 134.601 136.601C142.998 128.206 142.998 114.592 134.601 106.196L104.196 75.7904C95.7997 67.3942 82.1866 67.3942 73.7904 75.7904C65.3942 84.1866 65.3942 97.7997 73.7904 106.196L81.3918 113.797C85.59 117.995 85.5899 124.802 81.3918 129C77.1937 133.198 70.3871 133.198 66.189 129L58.5876 121.399C41.795 104.606 41.795 77.3802 58.5876 60.5876ZM119.399 106.196C123.597 110.394 123.597 117.201 119.399 121.399C111.003 129.796 111.003 143.408 119.399 151.804L149.804 182.21C158.201 190.606 171.814 190.606 180.21 182.21C188.606 173.814 188.606 160.201 180.21 151.804L172.609 144.203C168.41 140.005 168.41 133.198 172.609 129C176.807 124.802 183.613 124.802 187.812 129L195.413 136.601C212.206 153.394 212.206 180.62 195.413 197.413C178.62 214.206 151.394 214.206 134.601 197.413L104.196 167.008C87.4035 150.215 87.4035 122.989 104.196 106.196C108.394 101.998 115.201 101.998 119.399 106.196Z" fill="url(#paint0_linear_339_222)"/>
</g>
<defs>
<linearGradient id="paint0_linear_339_222" x1="127" y1="47.9932" x2="127" y2="210.007" gradientUnits="userSpaceOnUse">
<stop stop-color="#C588FE"/>
<stop offset="1" stop-color="#A78BFA"/>
</linearGradient>
<clipPath id="clip0_339_222">
<rect width="253" height="253" rx="8" fill="white"/>
</clipPath>
</defs>
</svg>
